<svg height="512" viewBox="0 0 48 48" width="512" xmlns="http://www.w3.org/2000/svg"><g id="_13-love" data-name="13-love"><circle cx="24" cy="24" fill="#ffce52" r="23"/><path d="m24 4c12.15 0 22 8.507 22 19h.975a23 23 0 0 0 -45.95 0h.975c0-10.493 9.85-19 22-19z" fill="#ffe369"/><path d="m46 23c0 10.493-9.85 19-22 19s-22-8.507-22-19h-.975c-.014.332-.025.665-.025 1a23 23 0 0 0 46 0c0-.335-.011-.668-.025-1z" fill="#ffb32b"/><ellipse cx="37" cy="9" fill="#f6fafd" rx=".825" ry="1.148" transform="matrix(.707 -.707 .707 .707 4.48 28.81)"/><ellipse cx="30.746" cy="4.5" fill="#f6fafd" rx=".413" ry=".574" transform="matrix(.707 -.707 .707 .707 5.829 23.067)"/><ellipse cx="34" cy="7" fill="#f6fafd" rx="1.65" ry="2.297" transform="matrix(.707 -.707 .707 .707 5.015 26.102)"/><path d="m34 39c0-2.76-4.47-5-10-5s-10 2.24-10 5l-.1.13a10.727 10.727 0 0 1 -4.9-8.98 2.025 2.025 0 0 1 1.87-2.15c1.88 1.08 6.39 1 13.13 1s11.25.08 13.12-1a2.026 2.026 0 0 1 1.88 2.15 10.727 10.727 0 0 1 -4.9 8.98z" fill="#273941"/><path d="m34 39 .1.13a17.882 17.882 0 0 1 -10.1 2.87 17.882 17.882 0 0 1 -10.1-2.87l.1-.13c0-2.76 4.47-5 10-5s10 2.24 10 5z" fill="#ae2d4c"/><path d="m16.5 9a4.465 4.465 0 0 1 4.5 4.8c0 7.2-7.5 11.2-9 11.2-.72 0-8.38-3.7-8.97-10.39q-.03-.405-.03-.81a4.451 4.451 0 0 1 3.58-4.7 4.053 4.053 0 0 1 .92-.1c2.25 0 3.75 1.6 4.5 4 .75-2.4 2.25-4 4.5-4z" fill="#cf4054"/><path d="m45 13.8q0 .4-.03.81c-.53 6.69-7.53 10.39-8.97 10.39-.75 0-9-4-9-11.2a4.465 4.465 0 0 1 4.5-4.8c2.25 0 3.75 1.6 4.5 4 .75-2.4 2.25-4 4.5-4a4.053 4.053 0 0 1 .92.1 4.451 4.451 0 0 1 3.58 4.7z" fill="#cf4054"/><path d="m10.87 30c1.88 1.08 6.39 1 13.13 1s11.25.08 13.12-1a1.926 1.926 0 0 1 1.793 1.536 11.043 11.043 0 0 0 .087-1.386 2.026 2.026 0 0 0 -1.88-2.15c-1.87 1.08-6.38 1-13.12 1s-11.25.08-13.13-1a2.025 2.025 0 0 0 -1.87 2.15 11.015 11.015 0 0 0 .087 1.385 1.92 1.92 0 0 1 1.783-1.535z" fill="#141e21"/><path d="m33.531 37.486a18.171 18.171 0 0 1 -9.531 2.514 18.171 18.171 0 0 1 -9.531-2.514 2.809 2.809 0 0 0 -.469 1.514l-.1.13a17.882 17.882 0 0 0 10.1 2.87 17.882 17.882 0 0 0 10.1-2.87l-.1-.13a2.809 2.809 0 0 0 -.469-1.514z" fill="#8a293d"/><path d="m36 25c-.71 0-8.131-3.59-8.921-10.081a6 6 0 0 0 -.079.881c0 7.2 8.25 11.2 9 11.2 1.44 0 8.44-3.7 8.97-10.39q.03-.41.03-.81a6.079 6.079 0 0 0 -.07-.907c-.705 6.507-7.511 10.107-8.93 10.107z" fill="#fbb40a"/><path d="m12 25c-.71 0-8.131-3.59-8.921-10.081a6 6 0 0 0 -.079.881c0 7.2 8.25 11.2 9 11.2 1.44 0 8.44-3.7 8.97-10.39q.03-.41.03-.81a6.079 6.079 0 0 0 -.07-.907c-.705 6.507-7.511 10.107-8.93 10.107z" fill="#fbb40a"/><path d="m40.5 9c-2.25 0-3.75 1.6-4.5 4 .583-1.8 1.75-3 3.5-3a3.408 3.408 0 0 1 3.5 3.6c0 5.4-5.833 8.4-7 8.4-.56 0-6.518-2.775-6.977-7.793-.015-.2-.023-.405-.023-.607a3.366 3.366 0 0 1 2.784-3.525 3.243 3.243 0 0 1 .716-.075c1.75 0 2.917 1.2 3.5 3-.75-2.4-2.25-4-4.5-4a4.053 4.053 0 0 0 -.92.1 4.451 4.451 0 0 0 -3.58 4.7q0 .4.03.81c.59 6.69 8.25 10.39 8.97 10.39 1.5 0 9-4 9-11.2a4.465 4.465 0 0 0 -4.5-4.8z" fill="#ae2d4c"/><path d="m16.5 9c-2.25 0-3.75 1.6-4.5 4 .583-1.8 1.75-3 3.5-3a3.408 3.408 0 0 1 3.5 3.6c0 5.4-5.833 8.4-7 8.4-.56 0-6.518-2.775-6.977-7.793-.015-.202-.023-.407-.023-.607a3.366 3.366 0 0 1 2.784-3.525 3.243 3.243 0 0 1 .716-.075c1.75 0 2.917 1.2 3.5 3-.75-2.4-2.25-4-4.5-4a4.053 4.053 0 0 0 -.92.1 4.451 4.451 0 0 0 -3.58 4.7q0 .4.03.81c.59 6.69 8.25 10.39 8.97 10.39 1.5 0 9-4 9-11.2a4.465 4.465 0 0 0 -4.5-4.8z" fill="#ae2d4c"/><g fill="#f6fafd"><ellipse cx="42" cy="13" rx=".825" ry="1.148" transform="matrix(.707 -.707 .707 .707 3.116 33.519)"/><ellipse cx="40.746" cy="11.5" rx=".413" ry=".574" transform="matrix(.707 -.707 .707 .707 3.809 32.193)"/><ellipse cx="18" cy="13" rx=".825" ry="1.148" transform="matrix(.707 -.707 .707 .707 -3.919 16.543)"/><ellipse cx="16.746" cy="11.5" rx=".413" ry=".574" transform="matrix(.707 -.707 .707 .707 -3.226 15.216)"/></g></g></svg>