<svg height="512" viewBox="0 0 48 48" width="512" xmlns="http://www.w3.org/2000/svg"><g id="_12-neutral" data-name="12-neutral"><circle cx="24" cy="24" fill="#ffce52" r="23"/><ellipse cx="33" cy="18" fill="#273941" rx="3" ry="4"/><ellipse cx="15" cy="18" fill="#273941" rx="3" ry="4"/><ellipse cx="33" cy="18" fill="#141e21" rx="2" ry="3"/><ellipse cx="15" cy="18" fill="#141e21" rx="2" ry="3"/><circle cx="34" cy="17" fill="#f6fafd" r="1"/><circle cx="16" cy="17" fill="#f6fafd" r="1"/><path d="m24 4c12.15 0 22 8.507 22 19h.975a23 23 0 0 0 -45.95 0h.975c0-10.493 9.85-19 22-19z" fill="#ffe369"/><path d="m46 23c0 10.493-9.85 19-22 19s-22-8.507-22-19h-.975c-.014.332-.025.665-.025 1a23 23 0 0 0 46 0c0-.335-.011-.668-.025-1z" fill="#ffb32b"/><path d="m16 32h16v2h-16z" fill="#273941"/><g fill="#f6fafd"><ellipse cx="37" cy="9" rx=".825" ry="1.148" transform="matrix(.707 -.707 .707 .707 4.48 28.81)"/><ellipse cx="30.746" cy="4.5" rx=".413" ry=".574" transform="matrix(.707 -.707 .707 .707 5.829 23.067)"/><ellipse cx="34" cy="7" rx="1.65" ry="2.297" transform="matrix(.707 -.707 .707 .707 5.015 26.102)"/></g></g></svg>