<svg height="512" viewBox="0 0 48 48" width="512" xmlns="http://www.w3.org/2000/svg"><g id="_08-sarcastic" data-name="08-sarcastic"><circle cx="24" cy="24" fill="#ffce52" r="23"/><path d="m21 36.014-2-.014c0-3.158 6.915-4 11-4v2c-5.859 0-8.853 1.459-9 2.014z" fill="#273941"/><path d="m39.14 15.92c-.042-.074-.094-.142-.14-.214v1.294a2 2 0 0 1 -4 0v-2h-5.46a5.931 5.931 0 0 0 -1.54 4 6 6 0 0 0 12 0 5.871 5.871 0 0 0 -.86-3.08z" fill="#f6fafd"/><path d="m37 19a2 2 0 0 0 2-2v-1.294a5.133 5.133 0 0 0 -.54-.706h-3.46v2a2 2 0 0 0 2 2z" fill="#141e21"/><path d="m19.14 15.92c-.042-.074-.094-.142-.14-.214v1.294a2 2 0 0 1 -4 0v-2h-5.46a5.931 5.931 0 0 0 -1.54 4 6 6 0 0 0 12 0 5.871 5.871 0 0 0 -.86-3.08z" fill="#f6fafd"/><path d="m17 19a2 2 0 0 0 2-2v-1.294a5.133 5.133 0 0 0 -.54-.706h-3.46v2a2 2 0 0 0 2 2z" fill="#141e21"/><path d="m24 4c12.15 0 22 8.507 22 19h.975a23 23 0 0 0 -45.95 0h.975c0-10.493 9.85-19 22-19z" fill="#ffe369"/><path d="m46 23c0 10.493-9.85 19-22 19s-22-8.507-22-19h-.975c-.014.332-.025.665-.025 1a23 23 0 0 0 46 0c0-.335-.011-.668-.025-1z" fill="#ffb32b"/><ellipse cx="36.5" cy="8.5" fill="#f6fafd" rx=".825" ry="1.148" transform="matrix(.707 -.707 .707 .707 4.687 28.31)"/><ellipse cx="30.246" cy="4" fill="#f6fafd" rx=".413" ry=".574" transform="matrix(.707 -.707 .707 .707 6.037 22.567)"/><ellipse cx="33.5" cy="6.5" fill="#f6fafd" rx="1.65" ry="2.297" transform="matrix(.707 -.707 .707 .707 5.222 25.602)"/><g fill="#fbb40a"><path d="m34 25a6 6 0 0 1 -5.908-4.985 6 6 0 1 0 11.817-.009 6 6 0 0 1 -5.909 4.994z"/><path d="m14 25a6 6 0 0 1 -5.908-4.985 6 6 0 1 0 11.817-.009 6 6 0 0 1 -5.909 4.994z"/><path d="m35 15h3.46a5.133 5.133 0 0 1 .54.706c.046.072.1.14.14.214a5.851 5.851 0 0 1 .831 2.655c.018-.189.029-.381.029-.575a5.871 5.871 0 0 0 -.86-3.08c-.042-.074-.094-.142-.14-.214a5.133 5.133 0 0 0 -.54-.706h-8.92a5.931 5.931 0 0 0 -1.54 4 6.032 6.032 0 0 0 .034.634 5.927 5.927 0 0 1 1.506-3.634z"/><path d="m15 15h3.46a5.133 5.133 0 0 1 .54.706c.046.072.1.14.14.214a5.851 5.851 0 0 1 .831 2.655c.018-.189.029-.381.029-.575a5.871 5.871 0 0 0 -.86-3.08c-.042-.074-.094-.142-.14-.214a5.133 5.133 0 0 0 -.54-.706h-8.92a5.931 5.931 0 0 0 -1.54 4 6.032 6.032 0 0 0 .034.634 5.927 5.927 0 0 1 1.506-3.634z"/></g></g></svg>